<svg width="82" height="80" viewBox="0 0 82 80" fill="none" xmlns="http://www.w3.org/2000/svg">
<g clip-path="url(#clip0_1101_17)">
<path d="M68.32 0H13.6C6.08893 0 0 6.08893 0 13.6V66.272C0 73.7831 6.08893 79.872 13.6 79.872H68.32C75.8311 79.872 81.92 73.7831 81.92 66.272V13.6C81.92 6.08893 75.8311 0 68.32 0Z" fill="#FF3578"/>
<path d="M33.1242 47.7862H20.4298L17.8224 55.7967C17.7893 55.9344 17.7118 56.0574 17.602 56.1468C17.4921 56.2362 17.356 56.287 17.2144 56.2915H10.7335C10.3668 56.2915 10.2384 56.0899 10.3488 55.6867L21.3856 24.1923L21.5319 23.7593C21.593 23.5759 21.6541 23.3811 21.7152 23.1468C21.8592 22.4137 21.9328 21.6684 21.9351 20.9212C21.9277 20.869 21.9325 20.8157 21.9492 20.7657C21.9659 20.7156 21.994 20.6701 22.0313 20.6328C22.0686 20.5955 22.1141 20.5674 22.1642 20.5507C22.2142 20.534 22.2675 20.5292 22.3197 20.5366H31.0573C31.3133 20.5366 31.4599 20.6281 31.497 20.8115L43.9258 55.7417C44.0359 56.1081 43.9258 56.2915 43.5962 56.2911H36.4522C36.3295 56.3048 36.2059 56.2733 36.1048 56.2025C36.0036 56.1317 35.9316 56.0265 35.9024 55.9065L33.1242 47.7862ZM22.4298 41.0083H31.1124L30.9888 40.5996L30.7898 39.9526L30.4992 39.0259L29.9408 37.2764L28.4196 32.4627C28.1461 31.598 27.8837 30.7299 27.6324 29.8585L27.3514 28.8678L27.121 28.0463L26.8378 27.0191L26.7709 26.775H26.7162C26.4411 28.0941 26.1062 29.4 25.7124 30.6886L25.3412 31.8799L24.4484 34.7599L23.8733 36.6223L23.6292 37.399L23.3866 38.1574L23.1453 38.8975C22.9133 39.6033 22.675 40.3069 22.4298 41.0083ZM47.7728 55.7683V35.5126C47.7728 35.3743 47.7728 35.2323 47.7716 35.087L47.7677 34.639L47.761 34.1695L47.7456 33.4246L47.7274 32.774C47.7175 32.4599 47.7057 32.1459 47.6922 31.8319L47.6634 31.2262L47.6218 30.4748L47.5872 29.9244L47.5668 29.6435L47.5533 29.4809C47.532 29.4261 47.5258 29.3666 47.5354 29.3086C47.545 29.2506 47.5701 29.1963 47.608 29.1513C47.653 29.112 47.7053 29.082 47.7619 29.0631C47.8186 29.0443 47.8784 29.0369 47.938 29.0415H53.4237C53.613 29.0353 53.8011 29.0728 53.9735 29.1513C54.1216 29.2278 54.2237 29.3711 54.248 29.5359L54.4954 30.278C54.5966 30.6416 54.6611 31.0145 54.6877 31.391C55.7502 30.4603 56.9814 29.7421 58.3146 29.2755C59.6401 28.8166 61.0335 28.5843 62.4362 28.5884C63.5286 28.5935 64.6134 28.7697 65.6512 29.1107C66.8493 29.4937 67.942 30.1498 68.8432 31.0272C69.7444 31.9046 70.4295 32.9793 70.8445 34.1667C71.394 35.5772 71.6093 37.3999 71.6093 39.6342V55.7683C71.6093 56.0979 71.4628 56.2627 71.1696 56.2627L64.7488 56.3196C64.6742 56.3304 64.598 56.3236 64.5264 56.2998C64.4549 56.276 64.3898 56.2358 64.3364 56.1825C64.2831 56.1292 64.2429 56.0641 64.219 55.9926C64.1952 55.921 64.1884 55.8449 64.1991 55.7702V40.4627C64.1813 39.4375 63.9556 38.4266 63.5357 37.4911C63.2409 36.801 62.7545 36.2097 62.1341 35.7875C61.433 35.3584 60.62 35.1479 59.7988 35.183C58.9156 35.1702 58.0388 35.3292 57.216 35.6502C56.4639 35.9505 55.7744 36.3884 55.1828 36.9414V55.7683C55.1828 56.0979 55.0362 56.2627 54.7431 56.2627H48.2679C48.2007 56.2723 48.1322 56.2661 48.0678 56.2447C48.0034 56.2233 47.9449 56.1871 47.8969 56.1392C47.8489 56.0912 47.8127 56.0327 47.7913 55.9683C47.7698 55.9039 47.7636 55.8354 47.7732 55.7683H47.7728Z" fill="white"/>
</g>
<defs>
<clipPath id="clip0_1101_17">
<rect width="81.92" height="80" fill="white"/>
</clipPath>
</defs>
</svg>
