<svg width="34" height="34" viewBox="0 0 34 34" fill="none" xmlns="http://www.w3.org/2000/svg">
<g clip-path="url(#clip0_1103_48)">
<mask id="mask0_1103_48" style="mask-type:luminance" maskUnits="userSpaceOnUse" x="0" y="0" width="34" height="34">
<path d="M0 0H34V34H0V0Z" fill="white"/>
</mask>
<g mask="url(#mask0_1103_48)">
<path d="M31.1667 9.91634H21.25V7.08301H31.1667V9.91634ZM33.6118 24.083C32.9857 25.9204 30.7374 28.333 26.3854 28.333C22.0306 28.333 18.5031 25.8836 18.5031 20.2934C18.5031 14.7543 21.7968 11.9068 26.2466 11.9068C30.6127 11.9068 33.2789 14.4313 33.8612 18.1769C33.9717 18.8938 34.0156 19.8599 33.9957 21.2086H22.6242C22.8083 25.7575 27.5584 25.9006 29.1238 24.083H33.6118ZM22.7233 18.4163H29.7571C29.6083 16.2248 28.1477 15.2728 26.248 15.2728C24.1712 15.2728 23.0223 16.3608 22.7233 18.4163ZM9.16017 28.316H0V7.11276H9.85008C17.6077 7.22751 17.7551 14.8251 13.7034 16.8963C18.6065 18.6813 18.7708 28.316 9.16017 28.316ZM4.25 15.583H9.32733C12.8803 15.583 13.4442 11.333 8.88533 11.333H4.25V15.583ZM9.05392 19.833H4.25V24.1057H8.98308C13.311 24.1057 13.0461 19.833 9.05392 19.833Z" fill="#FF3578"/>
</g>
</g>
<defs>
<clipPath id="clip0_1103_48">
<rect width="34" height="34" fill="white"/>
</clipPath>
</defs>
</svg>
