<svg width="1050" height="375" viewBox="0 0 1050 375" fill="none" xmlns="http://www.w3.org/2000/svg">
<path d="M298 92C298 66.5951 277.405 46 252 46C277.405 46 298 25.4049 298 0C298 25.4049 318.595 46 344 46C318.595 46 298 66.5951 298 92Z" fill="#FF3578"/>
<path d="M510 375C510 356.222 494.778 341 476 341C494.778 341 510 325.778 510 307C510 325.778 525.222 341 544 341C525.222 341 510 356.222 510 375Z" fill="#FF3578"/>
<path d="M92.18 269.08C80.0067 269.08 68.7133 267.173 58.3 263.36C48.0333 259.4 39.0867 253.827 31.46 246.64C23.98 239.453 18.1133 231.02 13.86 221.34C9.60667 211.513 7.48 200.733 7.48 189C7.48 177.267 9.60667 166.56 13.86 156.88C18.1133 147.053 23.98 138.547 31.46 131.36C39.0867 124.173 48.0333 118.673 58.3 114.86C68.7133 110.9 80.0067 108.92 92.18 108.92C106.407 108.92 119.093 111.413 130.24 116.4C141.533 121.387 150.92 128.573 158.4 137.96L130.68 163.04C125.693 157.173 120.193 152.7 114.18 149.62C108.313 146.54 101.713 145 94.38 145C88.0733 145 82.28 146.027 77 148.08C71.72 150.133 67.1733 153.14 63.36 157.1C59.6933 160.913 56.76 165.533 54.56 170.96C52.5067 176.387 51.48 182.4 51.48 189C51.48 195.6 52.5067 201.613 54.56 207.04C56.76 212.467 59.6933 217.16 63.36 221.12C67.1733 224.933 71.72 227.867 77 229.92C82.28 231.973 88.0733 233 94.38 233C101.713 233 108.313 231.46 114.18 228.38C120.193 225.3 125.693 220.827 130.68 214.96L158.4 240.04C150.92 249.28 141.533 256.467 130.24 261.6C119.093 266.587 106.407 269.08 92.18 269.08ZM232.03 267.98C218.976 267.98 207.39 265.34 197.27 260.06C187.15 254.78 179.156 247.52 173.29 238.28C167.57 228.893 164.71 218.187 164.71 206.16C164.71 194.133 167.57 183.5 173.29 174.26C179.156 165.02 187.15 157.833 197.27 152.7C207.39 147.42 218.976 144.78 232.03 144.78C245.083 144.78 256.67 147.42 266.79 152.7C277.056 157.833 285.05 165.02 290.77 174.26C296.49 183.5 299.35 194.133 299.35 206.16C299.35 218.187 296.49 228.893 290.77 238.28C285.05 247.52 277.056 254.78 266.79 260.06C256.67 265.34 245.083 267.98 232.03 267.98ZM232.03 234.76C236.87 234.76 241.123 233.66 244.79 231.46C248.603 229.26 251.61 226.033 253.81 221.78C256.01 217.38 257.11 212.173 257.11 206.16C257.11 200.147 256.01 195.087 253.81 190.98C251.61 186.727 248.603 183.5 244.79 181.3C241.123 179.1 236.87 178 232.03 178C227.336 178 223.083 179.1 219.27 181.3C215.603 183.5 212.596 186.727 210.25 190.98C208.05 195.087 206.95 200.147 206.95 206.16C206.95 212.173 208.05 217.38 210.25 221.78C212.596 226.033 215.603 229.26 219.27 231.46C223.083 233.66 227.336 234.76 232.03 234.76ZM396.373 144.78C405.613 144.78 413.973 146.687 421.453 150.5C428.933 154.167 434.8 159.887 439.053 167.66C443.453 175.433 445.653 185.48 445.653 197.8V266H403.853V204.62C403.853 196.113 402.093 189.953 398.573 186.14C395.2 182.18 390.433 180.2 384.273 180.2C379.873 180.2 375.84 181.227 372.173 183.28C368.506 185.187 365.646 188.193 363.593 192.3C361.54 196.407 360.513 201.76 360.513 208.36V266H318.713V146.76H358.533V180.64L350.833 170.74C355.38 162.087 361.613 155.633 369.533 151.38C377.453 146.98 386.4 144.78 396.373 144.78ZM525.137 267.98C509.883 267.98 498.003 264.24 489.497 256.76C480.99 249.133 476.737 237.693 476.737 222.44V120.14H518.537V222C518.537 226.253 519.71 229.627 522.057 232.12C524.403 234.467 527.41 235.64 531.077 235.64C536.063 235.64 540.317 234.393 543.837 231.9L554.177 261.16C550.657 263.507 546.33 265.193 541.197 266.22C536.063 267.393 530.71 267.98 525.137 267.98ZM459.357 182.4V151.16H545.817V182.4H459.357ZM643.115 266V243.78L640.255 238.28V197.36C640.255 190.76 638.202 185.7 634.095 182.18C630.135 178.513 623.755 176.68 614.955 176.68C609.235 176.68 603.442 177.633 597.575 179.54C591.708 181.3 586.722 183.793 582.615 187.02L568.535 158.64C575.282 154.24 583.348 150.867 592.735 148.52C602.268 146.027 611.728 144.78 621.115 144.78C640.475 144.78 655.435 149.253 665.995 158.2C676.702 167 682.055 180.86 682.055 199.78V266H643.115ZM607.915 267.98C598.382 267.98 590.315 266.367 583.715 263.14C577.115 259.913 572.055 255.513 568.535 249.94C565.162 244.367 563.475 238.133 563.475 231.24C563.475 223.907 565.308 217.6 568.975 212.32C572.788 206.893 578.582 202.787 586.355 200C594.128 197.067 604.175 195.6 616.495 195.6H644.655V217.38H622.215C615.468 217.38 610.702 218.48 607.915 220.68C605.275 222.88 603.955 225.813 603.955 229.48C603.955 233.147 605.348 236.08 608.135 238.28C610.922 240.48 614.735 241.58 619.575 241.58C624.122 241.58 628.228 240.48 631.895 238.28C635.708 235.933 638.495 232.413 640.255 227.72L645.975 243.12C643.775 251.333 639.448 257.567 632.995 261.82C626.688 265.927 618.328 267.98 607.915 267.98ZM770.883 267.98C757.683 267.98 745.877 265.34 735.463 260.06C725.197 254.78 717.13 247.52 711.263 238.28C705.397 228.893 702.463 218.187 702.463 206.16C702.463 194.133 705.397 183.5 711.263 174.26C717.13 165.02 725.197 157.833 735.463 152.7C745.877 147.42 757.683 144.78 770.883 144.78C784.377 144.78 796.037 147.64 805.863 153.36C815.69 159.08 822.657 167.147 826.763 177.56L794.423 194.06C791.637 188.487 788.19 184.453 784.083 181.96C779.977 179.32 775.503 178 770.663 178C765.823 178 761.423 179.1 757.463 181.3C753.503 183.5 750.35 186.727 748.003 190.98C745.803 195.087 744.703 200.147 744.703 206.16C744.703 212.32 745.803 217.527 748.003 221.78C750.35 226.033 753.503 229.26 757.463 231.46C761.423 233.66 765.823 234.76 770.663 234.76C775.503 234.76 779.977 233.513 784.083 231.02C788.19 228.38 791.637 224.273 794.423 218.7L826.763 235.2C822.657 245.613 815.69 253.68 805.863 259.4C796.037 265.12 784.377 267.98 770.883 267.98ZM897.676 267.98C882.422 267.98 870.542 264.24 862.036 256.76C853.529 249.133 849.276 237.693 849.276 222.44V120.14H891.076V222C891.076 226.253 892.249 229.627 894.596 232.12C896.942 234.467 899.949 235.64 903.616 235.64C908.602 235.64 912.856 234.393 916.376 231.9L926.716 261.16C923.196 263.507 918.869 265.193 913.736 266.22C908.602 267.393 903.249 267.98 897.676 267.98ZM831.896 182.4V151.16H918.356V182.4H831.896ZM986.174 267.98C976.054 267.98 966.154 266.807 956.474 264.46C946.941 262.113 939.241 259.18 933.374 255.66L945.914 227.06C951.487 230.433 958.014 233.147 965.494 235.2C972.974 237.107 980.307 238.06 987.494 238.06C994.534 238.06 999.374 237.327 1002.01 235.86C1004.8 234.393 1006.19 232.413 1006.19 229.92C1006.19 227.573 1004.87 225.887 1002.23 224.86C999.741 223.687 996.367 222.807 992.114 222.22C988.007 221.633 983.461 220.973 978.474 220.24C973.487 219.507 968.427 218.553 963.294 217.38C958.307 216.06 953.687 214.153 949.434 211.66C945.327 209.02 942.027 205.5 939.534 201.1C937.041 196.7 935.794 191.127 935.794 184.38C935.794 176.753 937.994 170.007 942.394 164.14C946.941 158.127 953.541 153.433 962.194 150.06C970.847 146.54 981.407 144.78 993.874 144.78C1002.23 144.78 1010.67 145.66 1019.17 147.42C1027.83 149.033 1035.09 151.527 1040.95 154.9L1028.41 183.28C1022.55 179.907 1016.68 177.633 1010.81 176.46C1004.95 175.14 999.374 174.48 994.094 174.48C987.054 174.48 982.067 175.287 979.134 176.9C976.347 178.513 974.954 180.493 974.954 182.84C974.954 185.187 976.201 187.02 978.694 188.34C981.187 189.513 984.487 190.467 988.594 191.2C992.847 191.787 997.467 192.447 1002.45 193.18C1007.44 193.767 1012.43 194.72 1017.41 196.04C1022.55 197.36 1027.17 199.34 1031.27 201.98C1035.53 204.473 1038.9 207.92 1041.39 212.32C1043.89 216.573 1045.13 222.073 1045.13 228.82C1045.13 236.153 1042.86 242.753 1038.31 248.62C1033.91 254.487 1027.31 259.18 1018.51 262.7C1009.86 266.22 999.081 267.98 986.174 267.98Z" fill="#FF3578"/>
</svg>
