<svg width="83" height="80" viewBox="0 0 83 80" fill="none" xmlns="http://www.w3.org/2000/svg">
<path d="M68.4295 0H13.6218C6.09869 0 0 6.09869 0 13.6218V66.3782C0 73.9013 6.09869 80 13.6218 80H68.4295C75.9526 80 82.0513 73.9013 82.0513 66.3782V13.6218C82.0513 6.09869 75.9526 0 68.4295 0Z" fill="#FF3578"/>
<path d="M32.9609 47.8633H20.2459L17.6587 55.9149C17.6255 56.0529 17.5479 56.1762 17.4378 56.2658C17.3278 56.3553 17.1913 56.4063 17.0494 56.4107L10.5584 56.4104C10.1911 56.4104 10.0625 56.2085 10.1731 55.8046L21.1818 24.2312L21.2917 23.8995L21.3283 23.786L21.402 23.5488C21.4385 23.4264 21.475 23.2966 21.5119 23.1559C21.6561 22.4216 21.7299 21.6751 21.7321 20.9267C21.7247 20.8744 21.7295 20.8211 21.7462 20.7709C21.763 20.7208 21.7911 20.6752 21.8285 20.6379C21.8659 20.6005 21.9114 20.5723 21.9616 20.5556C22.0117 20.5389 22.065 20.534 22.1174 20.5415H30.8693C31.1257 20.5415 31.2722 20.6331 31.3097 20.8168L43.8042 55.8601C43.9141 56.2271 43.8042 56.4107 43.4741 56.4104H36.3183C36.1954 56.424 36.0718 56.3924 35.9705 56.3215C35.8692 56.2506 35.7972 56.1453 35.768 56.0251L32.9609 47.8633ZM22.2276 41.0745H30.9244L30.8004 40.6652L30.6013 40.0171L30.31 39.0889L29.7507 37.3367L29.218 35.6527L28.227 32.5152C27.9531 31.6491 27.6903 30.7796 27.4385 29.9069L27.1571 28.9146L26.8533 27.8271L26.5757 26.8184H26.5206C26.2453 28.1396 25.9099 29.4476 25.5154 30.7383L25.1436 31.9315L24.2494 34.8162L23.7962 36.2857C23.7141 36.5511 23.6327 36.8136 23.551 37.0729L23.3074 37.8415L23.0651 38.5921L22.8241 39.3242L22.5843 40.0379C22.4651 40.3905 22.3459 40.7357 22.2276 41.0745ZM64.0603 44.7296H53.217C53.3499 45.8024 53.7061 46.8354 54.2629 47.762C54.8784 48.6796 55.7488 49.3971 56.767 49.8261C58.1471 50.4233 59.6396 50.7158 61.143 50.6838C62.3357 50.6609 63.524 50.5305 64.6933 50.294C65.7391 50.1529 66.7639 49.8858 67.7456 49.4985C67.9289 49.3524 68.0212 49.4434 68.0212 49.7735V55.0027C68.0302 55.1453 68.0016 55.2876 67.9382 55.4155C67.8754 55.5155 67.7907 55.6001 67.6907 55.6633C66.6018 56.1456 65.4558 56.4871 64.2805 56.6793C62.6838 56.9791 61.061 57.1173 59.4366 57.0918C56.9122 57.0918 54.7843 56.7129 53.0529 55.9556L52.8863 55.8809C51.2218 55.1476 49.7518 54.0356 48.5933 52.6335C47.5111 51.3123 46.7061 49.7866 46.2263 48.1476C45.7515 46.5297 45.5107 44.8522 45.5113 43.1662C45.5062 41.3251 45.7942 39.4949 46.3645 37.7444C46.9136 36.0369 47.7821 34.4492 48.9238 33.0658C50.0498 31.6985 51.458 30.5907 53.052 29.8181C54.6664 29.0296 56.5747 28.7466 58.7763 28.7466C60.6023 28.7004 62.416 29.0575 64.0882 29.7924C65.4942 30.3921 66.7319 31.3269 67.6933 32.5152C68.595 33.6789 69.2845 34.9925 69.7299 36.3956C70.1635 37.7479 70.3863 39.1589 70.3904 40.579C70.3904 41.3867 70.3629 42.1206 70.3081 42.7809L70.259 43.3463L70.2077 43.8828L70.1773 44.1546C70.175 44.1737 70.1726 44.1929 70.1702 44.212C70.156 44.3333 70.0976 44.4451 70.0064 44.5263C69.9151 44.6075 69.7972 44.6523 69.675 44.6524L69.5241 44.6556L69.3359 44.6652L69.1895 44.6758L68.8472 44.7049L68.5465 44.7347C68.4648 44.7434 68.3799 44.7514 68.2917 44.7588L68.019 44.7803L67.7276 44.7995L67.4183 44.8155L67.0908 44.8293L66.9199 44.8351L66.5651 44.8447C66.2141 44.8533 65.8545 44.8315 65.4856 44.8046L64.926 44.7636C64.638 44.7425 64.3491 44.7312 64.0603 44.7296ZM53.217 39.7152H60.7125L61.351 39.711L61.785 39.7049L62.0661 39.6985L62.3815 39.6876C62.6637 39.6594 62.9363 39.5691 63.1795 39.4232V39.0931C63.1685 38.6626 63.0945 38.236 62.9597 37.8271C62.6627 36.888 62.0657 36.0723 61.2602 35.5055C60.4548 34.9386 59.4855 34.6518 58.5013 34.6892C57.5749 34.6332 56.6523 34.848 55.8459 35.3074C55.0395 35.7668 54.3842 36.451 53.96 37.2764C53.5829 38.0443 53.3321 38.8675 53.217 39.7152Z" fill="white"/>
</svg>
