<svg width="51" height="79" viewBox="0 0 51 79" fill="none" xmlns="http://www.w3.org/2000/svg">
<path d="M11.7692 0C8.64784 0 5.65429 1.24848 3.44713 3.47078C1.23997 5.69309 4.4782e-06 8.70718 4.4782e-06 11.85C4.4782e-06 14.9928 1.23997 18.0069 3.44713 20.2292C5.65429 22.4515 8.64784 23.7 11.7692 23.7H39.2308C42.3522 23.7 45.3457 22.4515 47.5529 20.2292C49.76 18.0069 51 14.9928 51 11.85C51 8.70718 49.76 5.69309 47.5529 3.47078C45.3457 1.24848 42.3522 0 39.2308 0H11.7692ZM39.2308 27.65C36.1094 27.65 33.1158 28.8985 30.9087 31.1208C28.7015 33.3431 27.4615 36.3572 27.4615 39.5C27.4615 42.6428 28.7015 45.6569 30.9087 47.8792C33.1158 50.1015 36.1094 51.35 39.2308 51.35C42.3522 51.35 45.3457 50.1015 47.5529 47.8792C49.76 45.6569 51 42.6428 51 39.5C51 36.3572 49.76 33.3431 47.5529 31.1208C45.3457 28.8985 42.3522 27.65 39.2308 27.65ZM4.4782e-06 39.5C4.4782e-06 36.3572 1.23997 33.3431 3.44713 31.1208C5.65429 28.8985 8.64784 27.65 11.7692 27.65H23.5385V51.35H11.7692C8.64784 51.35 5.65429 50.1015 3.44713 47.8792C1.23997 45.6569 4.4782e-06 42.6428 4.4782e-06 39.5ZM11.7692 55.3C9.4415 55.3 7.16604 55.995 5.2306 57.2971C3.29516 58.5992 1.78667 60.4499 0.895885 62.6152C0.00509944 64.7805 -0.227971 67.1631 0.226148 69.4618C0.680266 71.7605 1.80118 73.872 3.44713 75.5292C5.09309 77.1865 7.19016 78.3151 9.47317 78.7723C11.7562 79.2295 14.1226 78.9949 16.2731 78.098C18.4237 77.2011 20.2618 75.6822 21.555 73.7335C22.8482 71.7848 23.5385 69.4937 23.5385 67.15V55.3H11.7692Z" fill="#FF3578"/>
</svg>
