<svg width="80" height="80" viewBox="0 0 80 80" fill="none" xmlns="http://www.w3.org/2000/svg">
<g clip-path="url(#clip0_1101_7)">
<path d="M61.25 0H18.75C8.39466 0 0 8.39466 0 18.75V61.25C0 71.6053 8.39466 80 18.75 80H61.25C71.6053 80 80 71.6053 80 61.25V18.75C80 8.39466 71.6053 0 61.25 0Z" fill="#FF3578"/>
<path d="M38.6662 47.6039H26.2662L23.7328 55.4373C23.6662 55.7373 23.3996 55.9373 23.0996 55.9039H16.8328C16.4662 55.9039 16.3662 55.7039 16.4662 55.3039L27.1996 24.4039C27.2996 24.0707 27.3996 23.7039 27.5328 23.3039C27.6662 22.6039 27.7328 21.8707 27.7328 21.1373C27.6996 20.9707 27.8328 20.8039 27.9996 20.7707H36.6328C36.8996 20.7707 37.0328 20.8707 37.0662 21.0373L49.2328 55.3707C49.3328 55.7373 49.2328 55.9039 48.8996 55.9039H41.9328C41.6996 55.9373 41.4662 55.7707 41.3996 55.5373L38.6662 47.6039ZM28.1996 40.8373H36.6662C36.4662 40.1373 36.1996 39.3039 35.8996 38.4373C35.5996 37.5373 35.2996 36.5707 34.9996 35.5707C34.6662 34.5373 34.3662 33.5373 34.0328 32.5039C33.6996 31.4707 33.3996 30.5039 33.1328 29.5373C32.8662 28.6042 32.6328 27.7373 32.3996 26.9373H32.3328C32.0328 28.3707 31.6662 29.8042 31.1996 31.2373C30.6996 32.8373 30.1996 34.5039 29.6662 36.1707C29.2357 37.744 28.7465 39.3006 28.1996 40.8373ZM56.6662 26.6039C55.5662 26.6373 54.4996 26.2039 53.6996 25.4373C52.9331 24.6039 52.5331 23.5039 52.5662 22.3707C52.5331 21.2373 52.9662 20.1707 53.7662 19.4039C54.5662 18.6373 55.6331 18.2373 56.7331 18.2373C58.0331 18.2373 59.0331 18.6373 59.7662 19.4039C60.5049 20.212 60.8995 21.2763 60.8662 22.3707C60.8996 23.5039 60.4996 24.6039 59.6996 25.4373C58.9331 26.2373 57.7996 26.6707 56.6662 26.6039ZM52.9331 55.5373V29.8707C52.9331 29.5373 53.0662 29.4039 53.3662 29.4039H59.9662C60.2662 29.4039 60.3996 29.5707 60.3996 29.8707V55.5373C60.3996 55.9039 60.2662 56.0707 59.9662 56.0707H53.4331C53.0996 56.0707 52.9331 55.8707 52.9331 55.5373Z" fill="white"/>
</g>
<defs>
<clipPath id="clip0_1101_7">
<rect width="80" height="80" fill="white"/>
</clipPath>
</defs>
</svg>
