<svg width="83" height="80" viewBox="0 0 83 80" fill="none" xmlns="http://www.w3.org/2000/svg">
<path d="M68.4295 0H13.6218C6.09869 0 0 6.09869 0 13.6218V66.3782C0 73.9013 6.09869 80 13.6218 80H68.4295C75.9526 80 82.0513 73.9013 82.0513 66.3782V13.6218C82.0513 6.09869 75.9526 0 68.4295 0Z" fill="#FF3578"/>
<path d="M29.797 20.9281V55.9903C29.797 56.3576 29.6319 56.541 29.3015 56.541H22.6412C22.3473 56.541 22.2005 56.3573 22.2012 55.9903V20.9281C22.2012 20.6349 22.3662 20.4881 22.6964 20.4878H29.3566C29.4126 20.4798 29.4697 20.4842 29.5238 20.5006C29.578 20.5169 29.6279 20.5449 29.6702 20.5825C29.7124 20.6201 29.746 20.6665 29.7685 20.7183C29.791 20.7702 29.8019 20.8264 29.8005 20.883L29.797 20.9281ZM49.8566 57.0878L49.5021 57.0913C46.9687 57.1299 44.4585 56.6034 42.1541 55.5503C40.0072 54.5566 38.2126 52.9347 37.0076 50.899C35.79 48.8769 35.1666 46.3564 35.1371 43.3381L35.1361 43.1105C35.1155 40.5843 35.7611 38.0972 37.0079 35.8999C38.2576 33.7219 40.0804 31.9279 42.2781 30.7131L42.4569 30.6157C44.8416 29.2948 47.7223 28.6342 51.0986 28.6342L51.1698 28.6346L51.3278 28.6381L51.5066 28.6451L51.7063 28.6554L51.9265 28.6692L52.1672 28.6868L52.7111 28.7314L52.8598 28.7442V17.9012C52.8598 17.6448 52.9701 17.5157 53.19 17.5157H60.1255C60.1704 17.5092 60.2161 17.5133 60.2591 17.5276C60.3021 17.542 60.3411 17.5661 60.3732 17.5981C60.4052 17.6302 60.4294 17.6692 60.4437 17.7122C60.458 17.7552 60.4621 17.8009 60.4557 17.8458V50.3762C60.4579 51.0559 60.4855 51.7352 60.5384 52.4128L60.5903 53.1224L60.6361 53.783L60.6759 54.3942C60.6827 54.5085 60.6548 54.6223 60.5959 54.7205C60.537 54.8188 60.4498 54.8969 60.3457 54.9448C58.5565 55.6909 56.6929 56.2444 54.7864 56.5958C53.1597 56.8961 51.5109 57.0607 49.8569 57.0878H49.8566ZM52.8598 50.266V35.2394C52.5624 35.1588 52.2586 35.1036 51.9518 35.0743C51.5768 35.0366 51.2002 35.0182 50.8233 35.0192C49.4874 35.006 48.1675 35.3076 46.9704 35.8999C45.8042 36.4796 44.8085 37.3521 44.0807 38.432C43.3281 39.5326 42.9518 40.9823 42.9521 42.7804C42.9254 43.9802 43.1213 45.1745 43.53 46.3028C43.8627 47.2121 44.3885 48.0385 45.0714 48.7249C45.725 49.3564 46.5165 49.8274 47.3832 50.1009C48.2987 50.3974 49.2556 50.5461 50.2178 50.5416C50.7313 50.5416 51.2082 50.523 51.6489 50.4862C52.0004 50.4597 52.3488 50.4018 52.69 50.3131L52.8598 50.266Z" fill="white"/>
</svg>
