<svg width="34" height="34" viewBox="0 0 34 34" fill="none" xmlns="http://www.w3.org/2000/svg">
<path d="M9.83073 7.08377C9.83035 7.83522 9.53148 8.55574 8.99986 9.08683C8.46824 9.61792 7.74743 9.91607 6.99598 9.91569C6.24453 9.91531 5.52401 9.61644 4.99292 9.08482C4.46184 8.55321 4.16369 7.83239 4.16406 7.08094C4.16444 6.32949 4.46331 5.60897 4.99493 5.07789C5.52655 4.5468 6.24737 4.24865 6.99881 4.24902C7.75026 4.2494 8.47078 4.54827 9.00187 5.07989C9.53295 5.61151 9.83111 6.33233 9.83073 7.08377ZM9.91573 12.0138H4.24906V29.7504H9.91573V12.0138ZM18.8691 12.0138H13.2307V29.7504H18.8124V20.4429C18.8124 15.2579 25.5699 14.7763 25.5699 20.4429V29.7504H31.1657V18.5163C31.1657 9.77544 21.1641 10.1013 18.8124 14.3938L18.8691 12.0138Z" fill="#FF3578"/>
</svg>
