<svg width="80" height="80" viewBox="0 0 80 80" fill="none" xmlns="http://www.w3.org/2000/svg">
<path d="M61.25 0H18.75C8.39466 0 0 8.39466 0 18.75V61.25C0 71.6053 8.39466 80 18.75 80H61.25C71.6053 80 80 71.6053 80 61.25V18.75C80 8.39466 71.6053 0 61.25 0Z" fill="#FF3578"/>
<path d="M18 55.6371V21.3371C18 21.1036 18.1 20.9705 18.3334 20.9705C18.9 20.9705 19.4334 20.9705 20.2 20.9371C21 20.9036 21.8334 20.9036 22.7334 20.8705C23.6334 20.8371 24.6 20.8371 25.6334 20.8036C26.6666 20.7705 27.6666 20.7705 28.6666 20.7705C31.4 20.7705 33.6666 21.1036 35.5334 21.8036C37.2067 22.3719 38.7325 23.3057 40 24.5371C41.0741 25.6147 41.904 26.9107 42.4334 28.3371C42.9334 29.7371 43.2 31.1705 43.2 32.6705C43.2 35.5371 42.5334 37.9036 41.2 39.7705C39.8666 41.6371 38 43.0371 35.8334 43.8371C33.5666 44.6705 31.0666 44.9705 28.3334 44.9705C27.5334 44.9705 27 44.9705 26.6666 44.9371C26.3334 44.9036 25.8666 44.9036 25.2334 44.9036V55.6036C25.2666 55.8371 25.1 56.0371 24.8666 56.0705H18.4C18.1334 56.0705 18 55.9371 18 55.6371ZM25.2666 27.4036V38.6036C25.7334 38.6371 26.1666 38.6705 26.5666 38.6705H28.3334C29.6334 38.6705 30.9334 38.4705 32.1666 38.0705C33.2334 37.7705 34.1666 37.1371 34.9 36.3036C35.6 35.4705 35.9334 34.3371 35.9334 32.8705C35.9647 31.8288 35.6987 30.7997 35.1666 29.9036C34.6 29.0371 33.8 28.3705 32.8334 28.0036C31.6 27.5036 30.2666 27.3036 28.9 27.3371C28.0334 27.3371 27.2666 27.3371 26.6334 27.3705C25.9666 27.3371 25.5 27.3705 25.2666 27.4036ZM64 36.5705C63 36.0371 61.9334 35.6705 60.8 35.4371C59.5666 35.1705 58.3334 35.0036 57.0666 35.0036C56.4 34.9705 55.7 35.0705 55.0666 35.2371C54.6334 35.3371 54.2666 35.5705 54.0334 35.9036C53.8666 36.1705 53.7666 36.5036 53.7666 36.8036C53.7666 37.1036 53.9 37.4036 54.1 37.6705C54.4 38.0371 54.8 38.3371 55.2334 38.5705C56.0062 38.9708 56.7958 39.3378 57.6 39.6705C59.4 40.2705 61.1334 41.1036 62.7334 42.1036C63.8334 42.8036 64.7334 43.7371 65.3666 44.8705C65.9 45.9371 66.1666 47.1036 66.1334 48.3036C66.1666 49.8705 65.7 51.4371 64.8334 52.7371C63.9036 54.0677 62.6063 55.0985 61.1 55.7036C59.4666 56.4036 57.4666 56.7705 55.0666 56.7705C53.5334 56.7705 52.0334 56.6371 50.5334 56.3371C49.3578 56.134 48.2144 55.7753 47.1334 55.2705C46.9 55.1371 46.7334 54.9036 46.7666 54.6371V48.8371C46.7666 48.7371 46.8 48.6036 46.9 48.5371C47 48.4705 47.1 48.5036 47.2 48.5705C48.5 49.3371 49.8666 49.8705 51.3334 50.2036C52.6 50.5371 53.9334 50.7036 55.2666 50.7036C56.5334 50.7036 57.4334 50.5371 58.0334 50.2371C58.5666 50.0036 58.9334 49.4371 58.9334 48.8371C58.9334 48.3705 58.6666 47.9371 58.1334 47.5036C57.6 47.0705 56.5 46.5705 54.8666 45.9371C53.191 45.3467 51.5999 44.5398 50.1334 43.5371C49.0889 42.7926 48.2235 41.8246 47.6 40.7036C47.0666 39.6371 46.8 38.4705 46.8334 37.3036C46.8334 35.8705 47.2334 34.5036 47.9666 33.2705C48.8 31.9371 50.0334 30.8705 51.4666 30.2036C53.0334 29.4036 55 29.0371 57.3666 29.0371C58.7334 29.0371 60.1334 29.1371 61.5 29.3371C62.5 29.4705 63.4666 29.7371 64.3666 30.1036C64.5 30.1371 64.6334 30.2705 64.7 30.4036C64.7334 30.5371 64.7666 30.6705 64.7666 30.8036V36.2371C64.7666 36.3705 64.7 36.5036 64.6 36.5705C64.3 36.6371 64.1334 36.6371 64 36.5705Z" fill="white"/>
</svg>
