<svg width="1882" height="757" viewBox="0 0 1882 757" fill="none" xmlns="http://www.w3.org/2000/svg">
<path d="M1591 757C1591 731.595 1570.4 711 1545 711C1570.4 711 1591 690.405 1591 665C1591 690.405 1611.6 711 1637 711C1611.6 711 1591 731.595 1591 757Z" fill="#FF3578"/>
<path d="M1252 139C1252 120.222 1236.78 105 1218 105C1236.78 105 1252 89.7775 1252 71C1252 89.7775 1267.22 105 1286 105C1267.22 105 1252 120.222 1252 139Z" fill="#FF3578"/>
<path d="M1848 399C1848 380.222 1832.78 365 1814 365C1832.78 365 1848 349.778 1848 331C1848 349.778 1863.22 365 1882 365C1863.22 365 1848 380.222 1848 399Z" fill="#FF3578"/>
<path d="M13 608V368H112.141C130.109 368 145.617 371.516 158.664 378.547C171.789 385.5 181.906 395.227 189.016 407.727C196.125 420.148 199.68 434.602 199.68 451.086C199.68 467.648 196.047 482.141 188.781 494.562C181.594 506.906 171.32 516.477 157.961 523.273C144.602 530.07 128.742 533.469 110.383 533.469H49.2109V487.766H99.6016C108.352 487.766 115.656 486.242 121.516 483.195C127.453 480.148 131.945 475.891 134.992 470.422C138.039 464.875 139.562 458.43 139.562 451.086C139.562 443.664 138.039 437.258 134.992 431.867C131.945 426.398 127.453 422.18 121.516 419.211C115.578 416.242 108.273 414.758 99.6016 414.758H71.0078V608H13Z" fill="#FF3578"/>
<path d="M441.597 488C441.597 514.406 436.519 536.789 426.362 555.148C416.206 573.508 402.456 587.453 385.112 596.984C367.847 606.516 348.472 611.281 326.988 611.281C305.425 611.281 286.011 606.477 268.745 596.867C251.48 587.258 237.769 573.312 227.613 555.031C217.534 536.672 212.495 514.328 212.495 488C212.495 461.594 217.534 439.211 227.613 420.852C237.769 402.492 251.48 388.547 268.745 379.016C286.011 369.484 305.425 364.719 326.988 364.719C348.472 364.719 367.847 369.484 385.112 379.016C402.456 388.547 416.206 402.492 426.362 420.852C436.519 439.211 441.597 461.594 441.597 488ZM382.3 488C382.3 472.375 380.073 459.172 375.62 448.391C371.245 437.609 364.917 429.445 356.636 423.898C348.433 418.352 338.55 415.578 326.988 415.578C315.503 415.578 305.62 418.352 297.339 423.898C289.058 429.445 282.691 437.609 278.238 448.391C273.863 459.172 271.675 472.375 271.675 488C271.675 503.625 273.863 516.828 278.238 527.609C282.691 538.391 289.058 546.555 297.339 552.102C305.62 557.648 315.503 560.422 326.988 560.422C338.55 560.422 348.433 557.648 356.636 552.102C364.917 546.555 371.245 538.391 375.62 527.609C380.073 516.828 382.3 503.625 382.3 488Z" fill="#FF3578"/>
<path d="M462.264 608V368H561.405C579.373 368 594.881 371.242 607.928 377.727C621.053 384.133 631.17 393.352 638.28 405.383C645.389 417.336 648.944 431.516 648.944 447.922C648.944 464.563 645.311 478.703 638.045 490.344C630.78 501.906 620.467 510.734 607.108 516.828C593.748 522.844 577.928 525.852 559.647 525.852H496.952V480.148H548.866C557.616 480.148 564.92 479.016 570.78 476.75C576.717 474.406 581.209 470.891 584.256 466.203C587.303 461.438 588.827 455.344 588.827 447.922C588.827 440.5 587.303 434.367 584.256 429.523C581.209 424.602 576.717 420.93 570.78 418.508C564.842 416.008 557.538 414.758 548.866 414.758H520.272V608H462.264ZM597.381 498.312L657.147 608H593.866L535.272 498.312H597.381Z" fill="#FF3578"/>
<path d="M659.709 415.109V368H862.56V415.109H789.787V608H732.599V415.109H659.709Z" fill="#FF3578"/>
<path d="M877.69 608V368H1041.52V415.109H935.698V464.328H1031.09V511.555H935.698V608H877.69Z" fill="#FF3578"/>
<path d="M1284.05 488C1284.05 514.406 1278.97 536.789 1268.82 555.148C1258.66 573.508 1244.91 587.453 1227.57 596.984C1210.3 606.516 1190.93 611.281 1169.44 611.281C1147.88 611.281 1128.46 606.477 1111.2 596.867C1093.93 587.258 1080.22 573.312 1070.07 555.031C1059.99 536.672 1054.95 514.328 1054.95 488C1054.95 461.594 1059.99 439.211 1070.07 420.852C1080.22 402.492 1093.93 388.547 1111.2 379.016C1128.46 369.484 1147.88 364.719 1169.44 364.719C1190.93 364.719 1210.3 369.484 1227.57 379.016C1244.91 388.547 1258.66 402.492 1268.82 420.852C1278.97 439.211 1284.05 461.594 1284.05 488ZM1224.75 488C1224.75 472.375 1222.53 459.172 1218.07 448.391C1213.7 437.609 1207.37 429.445 1199.09 423.898C1190.89 418.352 1181 415.578 1169.44 415.578C1157.96 415.578 1148.07 418.352 1139.79 423.898C1131.51 429.445 1125.14 437.609 1120.69 448.391C1116.32 459.172 1114.13 472.375 1114.13 488C1114.13 503.625 1116.32 516.828 1120.69 527.609C1125.14 538.391 1131.51 546.555 1139.79 552.102C1148.07 557.648 1157.96 560.422 1169.44 560.422C1181 560.422 1190.89 557.648 1199.09 552.102C1207.37 546.555 1213.7 538.391 1218.07 527.609C1222.53 516.828 1224.75 503.625 1224.75 488Z" fill="#FF3578"/>
<path d="M1304.72 608V368H1362.73V560.891H1462.57V608H1304.72Z" fill="#FF3578"/>
<path d="M1537.41 368V608H1479.4V368H1537.41Z" fill="#FF3578"/>
<path d="M1787.15 488C1787.15 514.406 1782.07 536.789 1771.91 555.148C1761.76 573.508 1748.01 587.453 1730.66 596.984C1713.4 606.516 1694.02 611.281 1672.54 611.281C1650.97 611.281 1631.56 606.477 1614.29 596.867C1597.03 587.258 1583.32 573.312 1573.16 555.031C1563.08 536.672 1558.04 514.328 1558.04 488C1558.04 461.594 1563.08 439.211 1573.16 420.852C1583.32 402.492 1597.03 388.547 1614.29 379.016C1631.56 369.484 1650.97 364.719 1672.54 364.719C1694.02 364.719 1713.4 369.484 1730.66 379.016C1748.01 388.547 1761.76 402.492 1771.91 420.852C1782.07 439.211 1787.15 461.594 1787.15 488ZM1727.85 488C1727.85 472.375 1725.62 459.172 1721.17 448.391C1716.79 437.609 1710.47 429.445 1702.19 423.898C1693.98 418.352 1684.1 415.578 1672.54 415.578C1661.05 415.578 1651.17 418.352 1642.89 423.898C1634.61 429.445 1628.24 437.609 1623.79 448.391C1619.41 459.172 1617.22 472.375 1617.22 488C1617.22 503.625 1619.41 516.828 1623.79 527.609C1628.24 538.391 1634.61 546.555 1642.89 552.102C1651.17 557.648 1661.05 560.422 1672.54 560.422C1684.1 560.422 1693.98 557.648 1702.19 552.102C1710.47 546.555 1716.79 538.391 1721.17 527.609C1725.62 516.828 1727.85 503.625 1727.85 488Z" fill="#FF3578"/>
<path d="M199.92 331C210.84 324.28 210.42 318.4 203.7 300.76C195.72 278.92 175.56 224.74 175.56 224.74H67.2L37.38 306.22C34.86 313.36 31.08 323.02 43.26 331H12.6C26.88 325.96 32.34 312.52 34.86 305.8L139.02 23.14H141.96C141.96 23.14 227.22 252.04 245.28 300.76C251.16 317.56 255.78 327.22 268.38 331H199.92ZM68.04 222.22H174.72L120.96 78.58L68.04 222.22ZM422.077 331C436.357 321.76 437.617 310.42 437.617 292.36V193.24C437.617 171.82 436.777 128.56 403.597 128.56C363.697 128.56 346.057 187.36 346.057 220.54C346.057 220.54 346.057 263.38 346.057 292.36C346.057 310.84 346.477 321.34 361.597 331H293.557C308.677 321.34 309.097 310.84 309.097 292.36V157.54C309.097 152.92 307.837 144.94 302.377 144.1C304.477 143.68 333.457 140.74 346.057 121.84V197.44C351.517 164.26 369.577 123.52 412.837 123.52C446.017 123.52 474.997 139.9 474.997 199.12V292.36C474.997 310.84 479.197 323.86 490.117 331H422.077ZM643.972 331C658.252 321.76 659.512 310.42 659.512 292.36V193.24C659.512 171.82 658.672 128.56 625.492 128.56C585.592 128.56 567.952 187.36 567.952 220.54C567.952 220.54 567.952 263.38 567.952 292.36C567.952 310.84 568.372 321.34 583.492 331H515.452C530.572 321.34 530.992 310.84 530.992 292.36V157.54C530.992 152.92 529.732 144.94 524.272 144.1C526.372 143.68 555.352 140.74 567.952 121.84V197.44C573.412 164.26 591.472 123.52 634.732 123.52C667.912 123.52 696.892 139.9 696.892 199.12V292.36C696.892 310.84 701.092 323.86 712.012 331H643.972ZM924.246 322.18L925.926 324.28C919.206 328.9 911.226 331.42 902.826 331C880.146 331 865.866 319.24 865.866 289.42V282.7C859.986 307.9 840.666 331 808.326 331C774.306 331 737.346 320.08 737.346 279.76C737.346 236.08 779.766 226.42 817.146 220.54C831.846 218.44 852.846 215.92 865.866 214.24C865.866 170.56 869.226 125.2 824.706 125.2C799.926 125.2 783.546 134.44 783.546 151.24C783.546 158.8 786.486 162.16 786.486 172.24C786.486 182.74 780.186 189.46 770.106 189.46C760.026 189.46 753.726 181.06 753.726 170.98C753.726 141.16 791.106 123.52 824.706 123.52C880.146 123.52 902.826 152.5 902.826 205.42V289C902.826 308.32 901.566 324.7 915.846 324.7C918.786 324.7 921.726 323.86 924.246 322.18ZM865.866 264.22V216.34C853.686 218.44 834.366 220.12 818.826 222.64C781.026 229.36 776.406 261.28 776.406 279.34C776.406 307.06 787.746 328.48 812.106 328.48C844.446 328.48 865.866 297.82 865.866 264.22ZM975.398 28.18H1009.84L971.198 88.66H951.038L975.398 28.18ZM1112.82 203.74C1174.56 227.68 1187.58 244.48 1187.58 270.94C1187.58 304.54 1158.6 331 1109.88 331C1069.14 331 1035.12 296.98 1035.12 296.98V264.22H1036.8C1045.2 296.14 1068.72 328.9 1109.88 328.9C1141.38 328.9 1159.44 314.2 1159.44 288.16C1159.44 261.28 1128.78 256.24 1094.34 241.12C1051.92 221.8 1040.58 205 1040.58 176.86C1040.58 145.78 1067.04 123.52 1105.68 123.52C1134.24 123.52 1168.26 145.78 1168.26 145.78V179.38H1166.58C1158.18 146.62 1136.76 125.2 1105.68 125.2C1075.86 125.2 1064.52 143.26 1064.52 160.48C1064.52 178.54 1071.66 187.78 1112.82 203.74Z" fill="#FF3578"/>
</svg>
