<svg width="80" height="80" viewBox="0 0 80 80" fill="none" xmlns="http://www.w3.org/2000/svg">
<mask id="mask0_1101_32" style="mask-type:luminance" maskUnits="userSpaceOnUse" x="0" y="0" width="80" height="80">
<path d="M2.95873 0C2.10419 0 1.32775 0.364489 0.795962 0.953901C0.318155 1.45911 0.0195258 2.13734 0 2.87785V3.0774C0.00918859 3.42689 0.0792516 3.75678 0.203298 4.06129C0.207892 4.08667 0.218229 4.11089 0.227418 4.13626C0.322749 4.3658 0.446795 4.58034 0.597258 4.77527C0.651241 4.85025 0.710967 4.91946 0.775287 4.9852C0.785625 5.0002 0.800556 5.01519 0.815488 5.03134L10.251 16.2798L13.6577 20.3399L23.8559 32.4926L27.258 36.5493L36.3891 47.4344L39.7912 51.4899V79.9224C41.7966 79.9224 43.6171 79.1231 44.9552 77.83C44.9598 77.83 44.9598 77.83 44.9598 77.8254L45.9648 76.6258L70.4524 47.4344L78.8381 37.4398C78.8783 37.3936 78.9174 37.3498 78.953 37.299C79.131 37.0741 79.2757 36.8238 79.3802 36.5493C79.5146 36.2148 79.5847 35.8549 79.5847 35.4708V2.9782C79.5847 2.1927 79.2803 1.47411 78.783 0.949288C78.2466 0.364489 77.4759 0 76.6191 0H2.95873Z" fill="url(#paint0_linear_1101_32)"/>
</mask>
<g mask="url(#mask0_1101_32)">
<path fill-rule="evenodd" clip-rule="evenodd" d="M2.95873 0C2.10419 0 1.32775 0.364489 0.795962 0.953901C0.318155 1.45911 0.0195258 2.13734 0 2.87785V3.0774C0.00918859 3.42689 0.0792516 3.75678 0.203298 4.06129C0.207892 4.08667 0.218229 4.11089 0.227418 4.13626C0.322749 4.3658 0.446795 4.58034 0.597258 4.77527C0.651241 4.85025 0.710967 4.91946 0.775287 4.9852C0.785625 5.0002 0.800556 5.01519 0.815488 5.03134L10.251 16.2798L13.6577 20.3399L23.8559 32.4926L27.258 36.5493L36.3891 47.4344L39.7912 51.4899V79.9224C41.7966 79.9224 43.6171 79.1231 44.9552 77.83C44.9598 77.83 44.9598 77.83 44.9598 77.8254L45.9648 76.6258L70.4524 47.4344L78.8381 37.4398C78.8783 37.3936 78.9174 37.3498 78.953 37.299C79.131 37.0741 79.2757 36.8238 79.3802 36.5493C79.5146 36.2148 79.5847 35.8549 79.5847 35.4708V2.9782C79.5847 2.1927 79.2803 1.47411 78.783 0.949288C78.2466 0.364489 77.4759 0 76.6191 0H2.95873Z" fill="#FF3578"/>
</g>
<path fill-rule="evenodd" clip-rule="evenodd" d="M39.7923 67.7634V51.4894L36.3903 47.4328L27.258 36.5488L23.8559 32.4922L13.6588 20.3394L10.2522 16.2793H2.95988C2.10419 16.2793 1.32775 16.6438 0.795962 17.2332C0.318155 17.7419 0.0206743 18.412 0 19.156V19.3555C0.0103372 19.705 0.0792516 20.0349 0.198703 20.3394C0.303224 20.614 0.447944 20.8643 0.621379 21.0892L0.621383 21.0892C0.661582 21.1388 0.70178 21.1884 0.74083 21.2345L10.1924 32.4922L13.5945 36.5488L22.7268 47.4328L37.6985 65.2755L39.7878 67.7681L39.7923 67.7634ZM39.7923 79.9249V67.7664L39.7878 67.771L37.6985 65.2784L22.7268 47.4357L13.5945 36.5518L10.1924 32.4951H2.95988C2.10419 32.4951 1.33349 32.8596 0.795962 33.4444C0.318155 33.9542 0.0206743 34.6244 0 35.373V35.5725C0.0103372 35.9174 0.0792516 36.2473 0.198703 36.5518C0.294035 36.8067 0.428418 37.0409 0.586921 37.2566C0.597258 37.2715 0.606447 37.2808 0.616784 37.2912L0.746573 37.4457C0.7479 37.4475 0.749227 37.4492 0.750557 37.451C0.764195 37.469 0.778171 37.4874 0.795962 37.5011L9.13231 47.4357L33.6199 76.6283L34.6238 77.8268C34.6238 77.8294 34.6238 77.8308 34.6243 77.8316C34.625 77.8325 34.6264 77.8325 34.6295 77.8325C35.9676 79.1255 37.7881 79.9249 39.7923 79.9249Z" fill="#FF3578"/>
<defs>
<linearGradient id="paint0_linear_1101_32" x1="6997.08" y1="-790.393" x2="1027.11" y2="5154.36" gradientUnits="userSpaceOnUse">
<stop stop-color="#FF6660"/>
<stop offset="1" stop-color="#FB4444"/>
</linearGradient>
</defs>
</svg>
