<svg width="1177" height="375" viewBox="0 0 1177 375" fill="none" xmlns="http://www.w3.org/2000/svg">
<path d="M298 92C298 66.5951 277.405 46 252 46C277.405 46 298 25.4049 298 0C298 25.4049 318.595 46 344 46C318.595 46 298 66.5951 298 92Z" fill="#FF3578"/>
<path d="M895 375C895 356.222 879.778 341 861 341C879.778 341 895 325.778 895 307C895 325.778 910.222 341 929 341C910.222 341 895 356.222 895 375Z" fill="#FF3578"/>
<path d="M69.52 269.08C56.9067 269.08 44.7333 267.54 33 264.46C21.4133 261.233 11.9533 257.127 4.62 252.14L18.92 220.02C25.8133 224.42 33.7333 228.087 42.68 231.02C51.7733 233.807 60.7933 235.2 69.74 235.2C75.7533 235.2 80.5933 234.687 84.26 233.66C87.9267 232.487 90.5667 231.02 92.18 229.26C93.94 227.353 94.82 225.153 94.82 222.66C94.82 219.14 93.2067 216.353 89.98 214.3C86.7533 212.247 82.5733 210.56 77.44 209.24C72.3067 207.92 66.5867 206.6 60.28 205.28C54.12 203.96 47.8867 202.273 41.58 200.22C35.42 198.167 29.7733 195.527 24.64 192.3C19.5067 188.927 15.3267 184.6 12.1 179.32C8.87333 173.893 7.26 167.073 7.26 158.86C7.26 149.62 9.75333 141.26 14.74 133.78C19.8733 126.3 27.5 120.287 37.62 115.74C47.74 111.193 60.3533 108.92 75.46 108.92C85.58 108.92 95.48 110.093 105.16 112.44C114.987 114.64 123.713 117.94 131.34 122.34L117.92 154.68C110.587 150.72 103.327 147.787 96.14 145.88C88.9533 143.827 81.9867 142.8 75.24 142.8C69.2267 142.8 64.3867 143.46 60.72 144.78C57.0533 145.953 54.4133 147.567 52.8 149.62C51.1867 151.673 50.38 154.02 50.38 156.66C50.38 160.033 51.92 162.747 55 164.8C58.2267 166.707 62.4067 168.32 67.54 169.64C72.82 170.813 78.54 172.06 84.7 173.38C91.0067 174.7 97.24 176.387 103.4 178.44C109.707 180.347 115.427 182.987 120.56 186.36C125.693 189.587 129.8 193.913 132.88 199.34C136.107 204.62 137.72 211.293 137.72 219.36C137.72 228.307 135.153 236.593 130.02 244.22C125.033 251.7 117.48 257.713 107.36 262.26C97.3867 266.807 84.7733 269.08 69.52 269.08ZM215.701 267.98C202.648 267.98 191.061 265.34 180.941 260.06C170.821 254.78 162.828 247.52 156.961 238.28C151.241 228.893 148.381 218.187 148.381 206.16C148.381 194.133 151.241 183.5 156.961 174.26C162.828 165.02 170.821 157.833 180.941 152.7C191.061 147.42 202.648 144.78 215.701 144.78C228.755 144.78 240.341 147.42 250.461 152.7C260.728 157.833 268.721 165.02 274.441 174.26C280.161 183.5 283.021 194.133 283.021 206.16C283.021 218.187 280.161 228.893 274.441 238.28C268.721 247.52 260.728 254.78 250.461 260.06C240.341 265.34 228.755 267.98 215.701 267.98ZM215.701 234.76C220.541 234.76 224.795 233.66 228.461 231.46C232.275 229.26 235.281 226.033 237.481 221.78C239.681 217.38 240.781 212.173 240.781 206.16C240.781 200.147 239.681 195.087 237.481 190.98C235.281 186.727 232.275 183.5 228.461 181.3C224.795 179.1 220.541 178 215.701 178C211.008 178 206.755 179.1 202.941 181.3C199.275 183.5 196.268 186.727 193.921 190.98C191.721 195.087 190.621 200.147 190.621 206.16C190.621 212.173 191.721 217.38 193.921 221.78C196.268 226.033 199.275 229.26 202.941 231.46C206.755 233.66 211.008 234.76 215.701 234.76ZM307.225 266V148.08C307.225 133.707 311.478 122.267 319.985 113.76C328.638 105.107 340.958 100.78 356.945 100.78C362.078 100.78 367.138 101.293 372.125 102.32C377.112 103.347 381.292 104.887 384.665 106.94L374.325 136.42C372.565 135.393 370.585 134.587 368.385 134C366.185 133.267 363.985 132.9 361.785 132.9C357.385 132.9 353.938 134.22 351.445 136.86C349.098 139.353 347.925 143.24 347.925 148.52V157.1L349.025 174.48V266H307.225ZM289.845 182.4V151.16H376.305V182.4H289.845ZM445 267.98C429.747 267.98 417.867 264.24 409.36 256.76C400.853 249.133 396.6 237.693 396.6 222.44V120.14H438.4V222C438.4 226.253 439.573 229.627 441.92 232.12C444.267 234.467 447.273 235.64 450.94 235.64C455.927 235.64 460.18 234.393 463.7 231.9L474.04 261.16C470.52 263.507 466.193 265.193 461.06 266.22C455.927 267.393 450.573 267.98 445 267.98ZM379.22 182.4V151.16H465.68V182.4H379.22ZM516.39 266L473.93 146.76H513.53L547.19 246.42H528.27L563.25 146.76H598.89L632.55 246.42H614.07L648.83 146.76H685.57L643.11 266H602.63L574.03 183.5H586.35L556.87 266H516.39ZM767.08 266V243.78L764.22 238.28V197.36C764.22 190.76 762.167 185.7 758.06 182.18C754.1 178.513 747.72 176.68 738.92 176.68C733.2 176.68 727.407 177.633 721.54 179.54C715.673 181.3 710.687 183.793 706.58 187.02L692.5 158.64C699.247 154.24 707.313 150.867 716.7 148.52C726.233 146.027 735.693 144.78 745.08 144.78C764.44 144.78 779.4 149.253 789.96 158.2C800.667 167 806.02 180.86 806.02 199.78V266H767.08ZM731.88 267.98C722.347 267.98 714.28 266.367 707.68 263.14C701.08 259.913 696.02 255.513 692.5 249.94C689.127 244.367 687.44 238.133 687.44 231.24C687.44 223.907 689.273 217.6 692.94 212.32C696.753 206.893 702.547 202.787 710.32 200C718.093 197.067 728.14 195.6 740.46 195.6H768.62V217.38H746.18C739.433 217.38 734.667 218.48 731.88 220.68C729.24 222.88 727.92 225.813 727.92 229.48C727.92 233.147 729.313 236.08 732.1 238.28C734.887 240.48 738.7 241.58 743.54 241.58C748.087 241.58 752.193 240.48 755.86 238.28C759.673 235.933 762.46 232.413 764.22 227.72L769.94 243.12C767.74 251.333 763.413 257.567 756.96 261.82C750.653 265.927 742.293 267.98 731.88 267.98ZM832.404 266V146.76H872.224V181.52L866.284 171.62C869.804 162.673 875.524 156 883.444 151.6C891.364 147.053 900.971 144.78 912.264 144.78V182.4C910.358 182.107 908.671 181.96 907.204 181.96C905.884 181.813 904.418 181.74 902.804 181.74C894.298 181.74 887.404 184.087 882.124 188.78C876.844 193.327 874.204 200.807 874.204 211.22V266H832.404ZM990.92 267.98C976.84 267.98 964.52 265.34 953.96 260.06C943.546 254.633 935.406 247.3 929.54 238.06C923.82 228.673 920.96 218.04 920.96 206.16C920.96 194.28 923.746 183.72 929.32 174.48C935.04 165.093 942.886 157.833 952.86 152.7C962.833 147.42 974.053 144.78 986.52 144.78C998.253 144.78 1008.96 147.2 1018.64 152.04C1028.32 156.733 1036.02 163.7 1041.74 172.94C1047.46 182.18 1050.32 193.4 1050.32 206.6C1050.32 208.067 1050.25 209.753 1050.1 211.66C1049.95 213.567 1049.81 215.327 1049.66 216.94H955.28V194.94H1027.44L1011.6 201.1C1011.75 195.673 1010.72 190.98 1008.52 187.02C1006.47 183.06 1003.53 179.98 999.72 177.78C996.053 175.58 991.726 174.48 986.74 174.48C981.753 174.48 977.353 175.58 973.54 177.78C969.873 179.98 967.013 183.133 964.96 187.24C962.906 191.2 961.88 195.893 961.88 201.32V207.7C961.88 213.567 963.053 218.627 965.4 222.88C967.893 227.133 971.413 230.433 975.96 232.78C980.506 234.98 985.933 236.08 992.24 236.08C998.106 236.08 1003.09 235.273 1007.2 233.66C1011.45 231.9 1015.63 229.26 1019.74 225.74L1041.74 248.62C1036.02 254.927 1028.98 259.767 1020.62 263.14C1012.26 266.367 1002.36 267.98 990.92 267.98ZM1112.93 267.98C1102.81 267.98 1092.91 266.807 1083.23 264.46C1073.7 262.113 1066 259.18 1060.13 255.66L1072.67 227.06C1078.25 230.433 1084.77 233.147 1092.25 235.2C1099.73 237.107 1107.07 238.06 1114.25 238.06C1121.29 238.06 1126.13 237.327 1128.77 235.86C1131.56 234.393 1132.95 232.413 1132.95 229.92C1132.95 227.573 1131.63 225.887 1128.99 224.86C1126.5 223.687 1123.13 222.807 1118.87 222.22C1114.77 221.633 1110.22 220.973 1105.23 220.24C1100.25 219.507 1095.19 218.553 1090.05 217.38C1085.07 216.06 1080.45 214.153 1076.19 211.66C1072.09 209.02 1068.79 205.5 1066.29 201.1C1063.8 196.7 1062.55 191.127 1062.55 184.38C1062.55 176.753 1064.75 170.007 1069.15 164.14C1073.7 158.127 1080.3 153.433 1088.95 150.06C1097.61 146.54 1108.17 144.78 1120.63 144.78C1128.99 144.78 1137.43 145.66 1145.93 147.42C1154.59 149.033 1161.85 151.527 1167.71 154.9L1155.17 183.28C1149.31 179.907 1143.44 177.633 1137.57 176.46C1131.71 175.14 1126.13 174.48 1120.85 174.48C1113.81 174.48 1108.83 175.287 1105.89 176.9C1103.11 178.513 1101.71 180.493 1101.71 182.84C1101.71 185.187 1102.96 187.02 1105.45 188.34C1107.95 189.513 1111.25 190.467 1115.35 191.2C1119.61 191.787 1124.23 192.447 1129.21 193.18C1134.2 193.767 1139.19 194.72 1144.17 196.04C1149.31 197.36 1153.93 199.34 1158.03 201.98C1162.29 204.473 1165.66 207.92 1168.15 212.32C1170.65 216.573 1171.89 222.073 1171.89 228.82C1171.89 236.153 1169.62 242.753 1165.07 248.62C1160.67 254.487 1154.07 259.18 1145.27 262.7C1136.62 266.22 1125.84 267.98 1112.93 267.98Z" fill="#FF3578"/>
</svg>
