<svg width="83" height="80" viewBox="0 0 83 80" fill="none" xmlns="http://www.w3.org/2000/svg">
<path d="M68.4295 0H13.6218C6.09869 0 0 6.09869 0 13.6218V66.3782C0 73.9013 6.09869 80 13.6218 80H68.4295C75.9526 80 82.0513 73.9013 82.0513 66.3782V13.6218C82.0513 6.09869 75.9526 0 68.4295 0Z" fill="#FF3578"/>
<path d="M55.2798 32.4232C55.2798 32.4232 50.658 46.7504 50.2804 47.9335C49.1165 38.9543 47.9417 29.9764 46.7559 21C38.8804 21 34.6695 26.5402 32.4441 32.388L26.3523 47.9688C26.3166 46.8513 25.4973 32.557 25.4973 32.557C25.0128 25.3923 18.3723 21.0305 13 21.0305L19.5051 60C27.7559 59.9648 32.2043 54.4574 34.5341 48.6096C34.5341 48.6096 39.4979 35.9375 39.7021 35.3624C39.7378 35.9023 43.2646 59.9977 43.2646 59.9977C51.5486 59.9977 55.9994 54.8283 58.3934 49.1848L70 21.0329C61.8181 21.0329 57.5051 26.5402 55.2798 32.4209V32.4232Z" fill="white"/>
</svg>
