<svg width="77" height="78" viewBox="0 0 77 78" fill="none" xmlns="http://www.w3.org/2000/svg">
<path d="M38.5 0C17.2865 0 0 17.511 0 39C0 60.489 17.2865 78 38.5 78C59.7135 78 77 60.489 77 39C77 17.511 59.7135 0 38.5 0ZM3.8885 39C3.8885 33.93 4.9665 29.094 6.8915 24.726L23.408 70.551C11.858 64.857 3.8885 52.884 3.8885 39ZM38.5 74.061C35.112 74.061 31.8395 73.554 28.721 72.618L39.116 42.042L49.742 71.565C49.819 71.721 49.896 71.916 49.973 72.033C46.3925 73.359 42.5425 74.061 38.5 74.061ZM43.274 22.542C45.353 22.425 47.2395 22.191 47.2395 22.191C49.0875 21.957 48.895 19.188 47.0085 19.305C47.0085 19.305 41.3875 19.734 37.7685 19.734C34.3805 19.734 28.644 19.305 28.644 19.305C26.796 19.227 26.565 22.113 28.4515 22.23C28.4515 22.23 30.2225 22.464 32.0705 22.581L37.4605 37.557L29.876 60.567L17.2865 22.542C19.3655 22.464 21.252 22.23 21.252 22.23C23.1 21.996 22.9075 19.227 21.021 19.344C21.021 19.344 15.4 19.773 11.781 19.773C11.1265 19.773 10.3565 19.773 9.548 19.734C15.785 10.218 26.411 3.939 38.5 3.939C47.509 3.939 55.7095 7.41 61.8695 13.143C61.7155 13.143 61.5615 13.104 61.4075 13.104C58.0195 13.104 55.594 16.107 55.594 19.344C55.594 22.23 57.2495 24.687 58.982 27.573C60.291 29.913 61.831 32.916 61.831 37.245C61.831 40.248 60.676 43.719 59.213 48.594L55.748 60.294L43.274 22.542ZM68.8765 22.191C73.2009 30.208 74.2646 39.6184 71.8412 48.4181C69.4178 57.2178 63.6987 64.7114 55.902 69.303L66.4895 38.337C68.453 33.345 69.1075 29.328 69.1075 25.779C69.1075 24.492 69.0305 23.283 68.8765 22.191Z" fill="#FF3578"/>
</svg>
