<svg width="760" height="375" viewBox="0 0 760 375" fill="none" xmlns="http://www.w3.org/2000/svg">
<path d="M298 92C298 66.5951 277.405 46 252 46C277.405 46 298 25.4049 298 0C298 25.4049 318.595 46 344 46C318.595 46 298 66.5951 298 92Z" fill="#FF3578"/>
<path d="M510 375C510 356.222 494.778 341 476 341C494.778 341 510 325.778 510 307C510 325.778 525.222 341 544 341C525.222 341 510 356.222 510 375Z" fill="#FF3578"/>
<path d="M53.46 266L3.52 112H48.4L90.42 245.32H67.76L111.98 112H152.02L193.82 245.32H172.04L215.38 112H256.96L207.02 266H160.38L124.74 152.7H137.28L100.1 266H53.46ZM321.619 267.98C308.566 267.98 296.979 265.34 286.859 260.06C276.739 254.78 268.746 247.52 262.879 238.28C257.159 228.893 254.299 218.187 254.299 206.16C254.299 194.133 257.159 183.5 262.879 174.26C268.746 165.02 276.739 157.833 286.859 152.7C296.979 147.42 308.566 144.78 321.619 144.78C334.673 144.78 346.259 147.42 356.379 152.7C366.646 157.833 374.639 165.02 380.359 174.26C386.079 183.5 388.939 194.133 388.939 206.16C388.939 218.187 386.079 228.893 380.359 238.28C374.639 247.52 366.646 254.78 356.379 260.06C346.259 265.34 334.673 267.98 321.619 267.98ZM321.619 234.76C326.459 234.76 330.713 233.66 334.379 231.46C338.193 229.26 341.199 226.033 343.399 221.78C345.599 217.38 346.699 212.173 346.699 206.16C346.699 200.147 345.599 195.087 343.399 190.98C341.199 186.727 338.193 183.5 334.379 181.3C330.713 179.1 326.459 178 321.619 178C316.926 178 312.673 179.1 308.859 181.3C305.193 183.5 302.186 186.727 299.839 190.98C297.639 195.087 296.539 200.147 296.539 206.16C296.539 212.173 297.639 217.38 299.839 221.78C302.186 226.033 305.193 229.26 308.859 231.46C312.673 233.66 316.926 234.76 321.619 234.76ZM408.303 266V146.76H448.123V181.52L442.183 171.62C445.703 162.673 451.423 156 459.343 151.6C467.263 147.053 476.869 144.78 488.163 144.78V182.4C486.256 182.107 484.569 181.96 483.103 181.96C481.783 181.813 480.316 181.74 478.703 181.74C470.196 181.74 463.303 184.087 458.023 188.78C452.743 193.327 450.103 200.807 450.103 211.22V266H408.303ZM540.172 244L541.272 194.06L589.892 146.76H639.392L585.492 202.42L564.152 219.58L540.172 244ZM505.412 266V102.76H547.212V266H505.412ZM592.972 266L556.452 220.24L582.412 188.12L643.572 266H592.972ZM695.49 267.98C685.37 267.98 675.47 266.807 665.79 264.46C656.257 262.113 648.557 259.18 642.69 255.66L655.23 227.06C660.804 230.433 667.33 233.147 674.81 235.2C682.29 237.107 689.624 238.06 696.81 238.06C703.85 238.06 708.69 237.327 711.33 235.86C714.117 234.393 715.51 232.413 715.51 229.92C715.51 227.573 714.19 225.887 711.55 224.86C709.057 223.687 705.684 222.807 701.43 222.22C697.324 221.633 692.777 220.973 687.79 220.24C682.804 219.507 677.744 218.553 672.61 217.38C667.624 216.06 663.004 214.153 658.75 211.66C654.644 209.02 651.344 205.5 648.85 201.1C646.357 196.7 645.11 191.127 645.11 184.38C645.11 176.753 647.31 170.007 651.71 164.14C656.257 158.127 662.857 153.433 671.51 150.06C680.164 146.54 690.724 144.78 703.19 144.78C711.55 144.78 719.984 145.66 728.49 147.42C737.144 149.033 744.404 151.527 750.27 154.9L737.73 183.28C731.864 179.907 725.997 177.633 720.13 176.46C714.264 175.14 708.69 174.48 703.41 174.48C696.37 174.48 691.384 175.287 688.45 176.9C685.664 178.513 684.27 180.493 684.27 182.84C684.27 185.187 685.517 187.02 688.01 188.34C690.504 189.513 693.804 190.467 697.91 191.2C702.164 191.787 706.784 192.447 711.77 193.18C716.757 193.767 721.744 194.72 726.73 196.04C731.864 197.36 736.484 199.34 740.59 201.98C744.844 204.473 748.217 207.92 750.71 212.32C753.204 216.573 754.45 222.073 754.45 228.82C754.45 236.153 752.177 242.753 747.63 248.62C743.23 254.487 736.63 259.18 727.83 262.7C719.177 266.22 708.397 267.98 695.49 267.98Z" fill="#FF3578"/>
</svg>
