<svg width="83" height="80" viewBox="0 0 83 80" fill="none" xmlns="http://www.w3.org/2000/svg">
<path d="M68.4295 0H13.6218C6.09869 0 0 6.09869 0 13.6218V66.3782C0 73.9013 6.09869 80 13.6218 80H68.4295C75.9526 80 82.0513 73.9013 82.0513 66.3782V13.6218C82.0513 6.09869 75.9526 0 68.4295 0Z" fill="#FF3578"/>
<path d="M43.1335 21.0381L32.8954 37.9365L43.8489 55.8804C43.9194 56.006 43.9389 56.1535 43.904 56.2932C43.887 56.3528 43.8505 56.3676 43.7944 56.3698L43.7322 56.3689L43.6566 56.3669C43.6155 56.3669 43.5697 56.3689 43.5188 56.3772H35.6213L35.4662 56.3746C35.0405 56.3634 34.7338 56.3025 34.547 55.9903C33.8162 54.5668 33.0822 53.1449 32.345 51.7246C31.6856 50.4579 31.0082 49.2006 30.313 47.9532L30.0059 47.4038C29.1744 45.926 28.3579 44.4398 27.5566 42.9455H27.5014C26.7614 44.4242 25.9999 45.8921 25.2171 47.3487C24.4277 48.8166 23.6479 50.2756 22.8777 51.7246C22.1071 53.1748 21.3181 54.6152 20.5111 56.0455C20.3813 56.3371 20.1655 56.398 19.8652 56.408L19.7402 56.4099H12.1995L12.1668 56.4108L12.0591 56.4205C11.9992 56.424 11.9633 56.4112 11.9518 56.3208C11.9311 56.1866 11.9605 56.0494 12.0345 55.9355L22.6575 38.4868L12.3095 20.9836C12.1995 20.8374 12.1813 20.7182 12.2543 20.6259C12.2949 20.5789 12.346 20.542 12.4033 20.518C12.4607 20.4941 12.5228 20.4839 12.5848 20.4881H20.3457C20.5149 20.4788 20.6841 20.5071 20.8412 20.5708C20.9726 20.6455 21.0857 20.749 21.1713 20.8737C21.8319 22.3416 22.5659 23.8096 23.3732 25.2769C24.1743 26.7349 24.9908 28.1845 25.8226 29.6253C26.6416 31.0437 27.4036 32.4944 28.1069 33.9737H28.162C28.8827 32.4947 29.6259 31.0268 30.3912 29.5705C31.1428 28.1394 31.9136 26.6987 32.7027 25.2493C33.4818 23.8185 34.2433 22.3783 34.987 20.9288C35.0293 20.7929 35.105 20.6698 35.2072 20.5708C35.3432 20.5019 35.4959 20.4733 35.6476 20.4881H42.8582C42.9245 20.4716 42.9943 20.477 43.0573 20.5036C43.1202 20.5302 43.1728 20.5765 43.2071 20.6356C43.2415 20.6946 43.2557 20.7633 43.2477 20.8311C43.2397 20.899 43.2098 20.9624 43.1627 21.0118L43.1338 21.0387L43.1335 21.0381ZM59.3098 57.0871L58.9303 57.0913C56.3968 57.1299 53.8865 56.6035 51.5819 55.5503C49.435 54.5567 47.6404 52.9347 46.4354 50.899C45.2204 48.881 44.5966 46.3663 44.5652 43.3557L44.5639 43.1105C44.5433 40.5843 45.1889 38.0972 46.4357 35.8999C47.6835 33.7252 49.5026 31.9333 51.696 30.7185L51.8848 30.616C54.2694 29.2948 57.1502 28.6342 60.5264 28.6342L60.6739 28.6358L60.8425 28.6413L61.0316 28.6496L61.2418 28.6618L61.595 28.6868L61.995 28.7189L62.2877 28.7445V17.9009C62.2877 17.6445 62.3979 17.5157 62.6178 17.5157H69.5534C69.5982 17.5092 69.6439 17.5133 69.6869 17.5276C69.7299 17.542 69.769 17.5661 69.801 17.5981C69.8331 17.6302 69.8572 17.6692 69.8715 17.7122C69.8858 17.7552 69.8899 17.8009 69.8835 17.8458V50.3762C69.8835 50.9224 69.9046 51.5108 69.9469 52.1403L70.0495 53.5682L70.104 54.3942C70.1108 54.5086 70.0829 54.6223 70.0239 54.7206C69.9649 54.8188 69.8777 54.897 69.7736 54.9448C67.9843 55.6909 66.1207 56.2444 64.2143 56.5958C62.5958 56.8945 60.9554 57.0589 59.3098 57.0871ZM62.2877 50.266V35.2394C61.9902 35.1588 61.6864 35.1036 61.3796 35.0743C61.0047 35.0366 60.628 35.0182 60.2511 35.0192C58.9155 35.006 57.5955 35.3077 56.3982 35.8999C55.2321 36.4796 54.2363 37.3521 53.5085 38.432C52.7819 39.4948 52.4059 40.8826 52.3813 42.5955L52.38 42.7804C52.3532 43.9802 52.5491 45.1745 52.9579 46.3028C53.2906 47.2122 53.8166 48.0385 54.4995 48.7249C55.1531 49.3564 55.9444 49.8274 56.8111 50.1009C57.7265 50.3974 58.6834 50.5461 59.6457 50.5416C60.1591 50.5416 60.6361 50.523 61.0768 50.4862C61.4282 50.4597 61.7767 50.4018 62.1178 50.3131L62.2877 50.266Z" fill="white"/>
</svg>
